<svg width="87" height="31" viewBox="0 0 87 31" fill="none" xmlns="http://www.w3.org/2000/svg">
<path d="M9.90047 30C6.5938 30 4.1938 29.28 2.70047 27.84C1.2338 26.3733 0.500469 24.2267 0.500469 21.4V2H5.22047V21.4C5.22047 23.08 5.5938 24.32 6.34047 25.12C7.1138 25.8933 8.30047 26.28 9.90047 26.28H18.8605V30H9.90047ZM38.4517 25C38.4517 25.64 38.5717 26.16 38.8117 26.56C39.0517 26.96 39.4917 27.4133 40.1317 27.92L37.2117 30.48C35.7184 29.7333 34.7717 28.7467 34.3717 27.52C33.7584 28.3733 32.9184 29.08 31.8517 29.64C30.7851 30.2 29.5184 30.48 28.0517 30.48C26.1317 30.48 24.6117 30 23.4917 29.04C22.3717 28.0533 21.8117 26.6667 21.8117 24.88C21.8117 22.8267 22.5184 21.3733 23.9317 20.52C25.3451 19.6667 27.1451 19.12 29.3317 18.88L31.6517 18.64C32.5051 18.56 33.1051 18.4133 33.4517 18.2C33.8251 17.96 34.0384 17.6133 34.0917 17.16C33.9317 14.92 32.5851 13.8 30.0517 13.8C29.0651 13.8 28.2117 13.9733 27.4917 14.32C26.7984 14.64 26.1317 15.1867 25.4917 15.96L22.4917 13.84C23.2117 12.8533 24.1717 12.0933 25.3717 11.56C26.5717 11 28.1317 10.72 30.0517 10.72C32.8517 10.72 34.9451 11.3067 36.3317 12.48C37.7451 13.6267 38.4517 15.3067 38.4517 17.52V25ZM29.1317 27.28C30.6784 27.28 31.8917 26.8933 32.7717 26.12C33.6517 25.3467 34.0917 24.3733 34.0917 23.2V21.04C33.5851 21.2533 32.7051 21.4267 31.4517 21.56L29.6517 21.76C27.1984 22.0267 25.9717 23 25.9717 24.68C25.9717 25.5333 26.2384 26.1867 26.7717 26.64C27.3317 27.0667 28.1184 27.28 29.1317 27.28ZM54.232 30.48C51.6187 30.48 49.632 29.6133 48.272 27.88V30H43.912V5.8C43.912 5.16 43.792 4.64 43.552 4.24C43.312 3.84 42.872 3.38667 42.232 2.88L45.152 0.359998C46.3254 0.973331 47.1387 1.68 47.592 2.48C48.0454 3.25333 48.272 4.33333 48.272 5.72V13.4C49.6587 11.6133 51.6454 10.72 54.232 10.72C55.9654 10.72 57.4454 11.1333 58.672 11.96C59.9254 12.76 60.872 13.8667 61.512 15.28C62.152 16.6667 62.472 18.2267 62.472 19.96V21.24C62.472 22.9733 62.152 24.5467 61.512 25.96C60.872 27.3467 59.9254 28.4533 58.672 29.28C57.4454 30.08 55.9654 30.48 54.232 30.48ZM53.072 27.08C54.6454 27.08 55.872 26.5333 56.752 25.44C57.632 24.32 58.072 22.92 58.072 21.24V19.96C58.072 18.28 57.632 16.8933 56.752 15.8C55.872 14.68 54.6454 14.12 53.072 14.12C50.6187 14.12 49.0187 15.3333 48.272 17.76V23.44C49.0187 25.8667 50.6187 27.08 53.072 27.08ZM86.2695 26.6V30H66.0295V26.76L74.7495 19.08C76.4562 17.5867 77.7629 16.3333 78.6695 15.32C79.6029 14.28 80.2562 13.3333 80.6295 12.48C81.0295 11.6267 81.2295 10.72 81.2295 9.76C81.2295 8.24 80.6695 7.06667 79.5495 6.24C78.4562 5.41333 77.0162 5 75.2295 5C72.4562 5 70.2429 6.01333 68.5895 8.04L66.6695 5C67.8695 3.74667 69.2029 2.86666 70.6695 2.36C72.1629 1.85333 73.7895 1.6 75.5495 1.6C78.4562 1.6 80.8562 2.25333 82.7495 3.56C84.6429 4.84 85.5895 6.88 85.5895 9.68C85.5895 12.9067 83.7495 16.1467 80.0695 19.4L71.9495 26.6H86.2695Z" fill="black"/>
</svg>
